<svg id="visual" viewBox="0 0 900 450" width="900" height="450" xmlns="http://www.w3.org/2000/svg" xmlns:xlink="http://www.w3.org/1999/xlink" version="1.1"><rect x="0" y="0" width="900" height="450" fill="#F3F4F6"></rect><path d="M0 401L6.3 396.3C12.7 391.7 25.3 382.3 37.8 377.8C50.3 373.3 62.7 373.7 75.2 375.7C87.7 377.7 100.3 381.3 112.8 381.3C125.3 381.3 137.7 377.7 150.2 374C162.7 370.3 175.3 366.7 187.8 371C200.3 375.3 212.7 387.7 225.2 391.7C237.7 395.7 250.3 391.3 262.8 387.8C275.3 384.3 287.7 381.7 300.2 381.8C312.7 382 325.3 385 337.8 388.7C350.3 392.3 362.7 396.7 375.2 397.7C387.7 398.7 400.3 396.3 412.8 393.3C425.3 390.3 437.7 386.7 450 383C462.3 379.3 474.7 375.7 487.2 373.8C499.7 372 512.3 372 525 371.8C537.7 371.7 550.3 371.3 562.8 370.3C575.3 369.3 587.7 367.7 600.2 366.3C612.7 365 625.3 364 637.8 366.5C650.3 369 662.7 375 675.2 376.8C687.7 378.7 700.3 376.3 712.8 376C725.3 375.7 737.7 377.3 750.2 381.3C762.7 385.3 775.3 391.7 787.8 393.5C800.3 395.3 812.7 392.7 825.2 388.7C837.7 384.7 850.3 379.3 862.8 378.3C875.3 377.3 887.7 380.7 893.8 382.3L900 384L900 451L893.8 451C887.7 451 875.3 451 862.8 451C850.3 451 837.7 451 825.2 451C812.7 451 800.3 451 787.8 451C775.3 451 762.7 451 750.2 451C737.7 451 725.3 451 712.8 451C700.3 451 687.7 451 675.2 451C662.7 451 650.3 451 637.8 451C625.3 451 612.7 451 600.2 451C587.7 451 575.3 451 562.8 451C550.3 451 537.7 451 525 451C512.3 451 499.7 451 487.2 451C474.7 451 462.3 451 450 451C437.7 451 425.3 451 412.8 451C400.3 451 387.7 451 375.2 451C362.7 451 350.3 451 337.8 451C325.3 451 312.7 451 300.2 451C287.7 451 275.3 451 262.8 451C250.3 451 237.7 451 225.2 451C212.7 451 200.3 451 187.8 451C175.3 451 162.7 451 150.2 451C137.7 451 125.3 451 112.8 451C100.3 451 87.7 451 75.2 451C62.7 451 50.3 451 37.8 451C25.3 451 12.7 451 6.3 451L0 451Z" fill="#1F252D" stroke-linecap="round" stroke-linejoin="miter"></path></svg>